<?xml version="1.0" encoding="UTF-8" standalone="no"?>
<!-- Created with Inkscape (http://www.inkscape.org/) -->

<svg
   width="100mm"
   height="100mm"
   viewBox="0 0 100 100"
   version="1.1"
   id="svg5"
   inkscape:version="1.1 (c68e22c387, 2021-05-23)"
   sodipodi:docname="icon2.svg"
   xmlns:inkscape="http://www.inkscape.org/namespaces/inkscape"
   xmlns:sodipodi="http://sodipodi.sourceforge.net/DTD/sodipodi-0.dtd"
   xmlns:xlink="http://www.w3.org/1999/xlink"
   xmlns="http://www.w3.org/2000/svg"
   xmlns:svg="http://www.w3.org/2000/svg">
  <sodipodi:namedview
     id="namedview7"
     pagecolor="#ffffff"
     bordercolor="#666666"
     borderopacity="1.0"
     inkscape:pageshadow="2"
     inkscape:pageopacity="0"
     inkscape:pagecheckerboard="true"
     inkscape:document-units="mm"
     showgrid="false"
     width="199mm"
     inkscape:zoom="1.0702396"
     inkscape:cx="236.39567"
     inkscape:cy="92.035467"
     inkscape:window-width="1920"
     inkscape:window-height="1017"
     inkscape:window-x="1912"
     inkscape:window-y="-8"
     inkscape:window-maximized="1"
     inkscape:current-layer="layer3">
    <inkscape:grid
       type="xygrid"
       id="grid1387" />
  </sodipodi:namedview>
  <defs
     id="defs2">
    <linearGradient
       inkscape:collect="always"
       id="linearGradient62823">
      <stop
         style="stop-color:#ffffff;stop-opacity:0.58038145"
         offset="0"
         id="stop62819" />
      <stop
         style="stop-color:#ffffff;stop-opacity:0"
         offset="1"
         id="stop62821" />
    </linearGradient>
    <linearGradient
       inkscape:collect="always"
       id="linearGradient41111">
      <stop
         style="stop-color:#ffffff;stop-opacity:1"
         offset="0"
         id="stop41107" />
      <stop
         style="stop-color:#000000;stop-opacity:1"
         offset="1"
         id="stop41109" />
    </linearGradient>
    <linearGradient
       inkscape:collect="always"
       id="linearGradient7204">
      <stop
         style="stop-color:#120f65;stop-opacity:0.89019608"
         offset="0"
         id="stop7200" />
      <stop
         style="stop-color:#000000;stop-opacity:0"
         offset="1"
         id="stop7202" />
    </linearGradient>
    <linearGradient
       inkscape:collect="always"
       id="linearGradient6158">
      <stop
         style="stop-color:#1c650f;stop-opacity:0.89019608"
         offset="0"
         id="stop6154" />
      <stop
         style="stop-color:#000000;stop-opacity:0"
         offset="1"
         id="stop6156" />
    </linearGradient>
    <linearGradient
       inkscape:collect="always"
       id="linearGradient1786">
      <stop
         style="stop-color:#3e3e3e;stop-opacity:0.89112902"
         offset="0"
         id="stop1784" />
      <stop
         style="stop-color:#000000;stop-opacity:1"
         offset="1"
         id="stop1782" />
    </linearGradient>
    <linearGradient
       inkscape:collect="always"
       id="linearGradient1026">
      <stop
         style="stop-color:#555555;stop-opacity:1"
         offset="0"
         id="stop1022" />
      <stop
         style="stop-color:#a8a8a8;stop-opacity:1"
         offset="1"
         id="stop1024" />
    </linearGradient>
    <linearGradient
       inkscape:collect="always"
       xlink:href="#linearGradient1026"
       id="linearGradient852"
       x1="82.603371"
       y1="85.161659"
       x2="20.966345"
       y2="10.733171"
       gradientUnits="userSpaceOnUse" />
    <radialGradient
       inkscape:collect="always"
       xlink:href="#linearGradient1786"
       id="radialGradient1622"
       cx="50"
       cy="50"
       fx="50"
       fy="50"
       r="49.5"
       gradientUnits="userSpaceOnUse"
       gradientTransform="matrix(0.09495189,0.89783657,-0.99445428,0.10516983,94.975119,-0.15031974)" />
    <radialGradient
       inkscape:collect="always"
       xlink:href="#linearGradient6158"
       id="radialGradient5482"
       gradientUnits="userSpaceOnUse"
       gradientTransform="matrix(0.09495189,0.89783657,-0.99445428,0.10516983,94.975119,-0.15031974)"
       cx="23.896372"
       cy="62.404507"
       fx="23.896372"
       fy="62.404507"
       r="49.5" />
    <radialGradient
       inkscape:collect="always"
       xlink:href="#linearGradient7204"
       id="radialGradient7098"
       gradientUnits="userSpaceOnUse"
       gradientTransform="matrix(0.09751703,2.0026547,-1.5641978,0.07616691,121.18887,-54.098253)"
       cx="56.280056"
       cy="41.603161"
       fx="56.280056"
       fy="41.603161"
       r="49.5" />
    <linearGradient
       inkscape:collect="always"
       xlink:href="#linearGradient1026"
       id="linearGradient8729"
       x1="0.39999998"
       y1="50"
       x2="99.599998"
       y2="50"
       gradientUnits="userSpaceOnUse" />
    <linearGradient
       inkscape:collect="always"
       xlink:href="#linearGradient1026"
       id="linearGradient8858"
       gradientUnits="userSpaceOnUse"
       gradientTransform="matrix(0.95251456,0,0,0.95251454,2.3742743,2.3742743)"
       x1="82.603371"
       y1="85.161659"
       x2="20.966345"
       y2="10.733171" />
    <linearGradient
       inkscape:collect="always"
       xlink:href="#linearGradient1026"
       id="linearGradient8913"
       gradientUnits="userSpaceOnUse"
       gradientTransform="matrix(0.87898688,0,0,0.87898686,6.0506581,6.0506581)"
       x1="26.520119"
       y1="19.53232"
       x2="20.966345"
       y2="10.733171" />
    <linearGradient
       inkscape:collect="always"
       xlink:href="#linearGradient41111"
       id="linearGradient41113"
       x1="-37.080822"
       y1="95.314926"
       x2="-71.933838"
       y2="72.528709"
       gradientUnits="userSpaceOnUse"
       gradientTransform="matrix(1.080423,0,0,0.83199579,128.76188,-6.5890246)" />
    <radialGradient
       inkscape:collect="always"
       xlink:href="#linearGradient62823"
       id="radialGradient62309"
       cx="81.121696"
       cy="91.652344"
       fx="81.121696"
       fy="91.652344"
       r="14.011118"
       gradientTransform="matrix(1.0318471,0,0,1.2426469,-17.156863,-39.111111)"
       gradientUnits="userSpaceOnUse" />
  </defs>
  <g
     inkscape:groupmode="layer"
     id="layer5"
     inkscape:label="Backing"
     style="display:inline">
    <circle
       style="display:inline;fill:#000000;fill-opacity:1;fill-rule:evenodd;stroke:none;stroke-width:3;stroke-miterlimit:4;stroke-dasharray:none;stroke-opacity:1"
       id="path32-7-0"
       cx="50"
       cy="50"
       r="48" />
  </g>
  <g
     inkscape:groupmode="layer"
     id="layer4"
     inkscape:label="Aperture"
     style="display:none">
    <path
       sodipodi:type="star"
       style="display:inline;fill:#000000;fill-opacity:1;stroke:none;stroke-width:11.3386;stroke-linejoin:round;stroke-miterlimit:4;stroke-dasharray:none;stroke-opacity:1"
       id="path3452"
       inkscape:flatsided="true"
       sodipodi:sides="6"
       sodipodi:cx="141.66415"
       sodipodi:cy="122.77559"
       sodipodi:r1="78.568878"
       sodipodi:r2="68.042648"
       sodipodi:arg1="1.0471976"
       sodipodi:arg2="1.5707963"
       inkscape:rounded="0"
       inkscape:randomized="0"
       d="m 180.94859,190.81824 -78.56888,-1e-5 -39.284434,-68.04264 39.284444,-68.042647 78.56888,3e-6 39.28443,68.042644 z"
       transform="matrix(0.26104096,0,0,0.26472552,13.019853,17.498168)" />
    <path
       style="fill:none;stroke:#ffffff;stroke-width:0.5;stroke-linecap:butt;stroke-linejoin:miter;stroke-miterlimit:4;stroke-dasharray:none;stroke-opacity:1"
       d="M 60.254845,68.012624 87.052644,21.597476"
       id="path4118" />
    <path
       style="fill:none;stroke:#ffffff;stroke-width:0.5;stroke-linecap:butt;stroke-linejoin:miter;stroke-miterlimit:4;stroke-dasharray:none;stroke-opacity:1"
       d="M 70.509695,50 43.42117,3.0813007"
       id="path4233" />
    <path
       style="fill:none;stroke:#ffffff;stroke-width:0.5;stroke-linecap:butt;stroke-linejoin:miter;stroke-miterlimit:4;stroke-dasharray:none;stroke-opacity:1"
       d="M 60.254848,31.987376 H 5.8900242"
       id="path4235" />
    <path
       style="fill:none;stroke:#ffffff;stroke-width:0.5;stroke-linecap:butt;stroke-linejoin:miter;stroke-miterlimit:4;stroke-dasharray:none;stroke-opacity:1"
       d="M 39.745152,31.987373 12.691192,78.846208"
       id="path4237" />
    <path
       style="fill:none;stroke:#ffffff;stroke-width:0.5;stroke-linecap:butt;stroke-linejoin:miter;stroke-miterlimit:4;stroke-dasharray:none;stroke-opacity:1"
       d="M 29.490305,49.999997 56.688611,97.108845"
       id="path4239" />
    <path
       style="fill:none;stroke:#ffffff;stroke-width:0.5;stroke-linecap:butt;stroke-linejoin:miter;stroke-miterlimit:4;stroke-dasharray:none;stroke-opacity:1"
       d="M 39.74515,68.012624 H 94.597356"
       id="path4241" />
  </g>
  <g
     inkscape:groupmode="layer"
     id="layer2"
     inkscape:label="Camera"
     style="display:inline">
    <circle
       style="display:none;fill:#000000;fill-opacity:1;fill-rule:evenodd;stroke:#ffffff;stroke-width:1;stroke-miterlimit:4;stroke-dasharray:none;stroke-opacity:1"
       id="path32-3"
       cx="50"
       cy="50"
       r="48" />
    <circle
       style="display:inline;fill:url(#radialGradient1622);fill-opacity:1;fill-rule:evenodd;stroke:none;stroke-width:3;stroke-miterlimit:4;stroke-dasharray:none;stroke-opacity:1"
       id="path32-7"
       cx="50"
       cy="50"
       r="48" />
  </g>
  <g
     inkscape:groupmode="layer"
     id="g7875"
     inkscape:label="Aperture copy"
     style="display:inline">
    <path
       sodipodi:type="star"
       style="display:inline;fill:#000000;fill-opacity:1;stroke:none;stroke-width:11.3386;stroke-linejoin:round;stroke-miterlimit:4;stroke-dasharray:none;stroke-opacity:1"
       id="path7861"
       inkscape:flatsided="true"
       sodipodi:sides="6"
       sodipodi:cx="141.66415"
       sodipodi:cy="122.77559"
       sodipodi:r1="78.568878"
       sodipodi:r2="68.042648"
       sodipodi:arg1="1.0471976"
       sodipodi:arg2="1.5707963"
       inkscape:rounded="0"
       inkscape:randomized="0"
       d="m 180.94859,190.81824 -78.56888,-1e-5 -39.284434,-68.04264 39.284444,-68.042647 78.56888,3e-6 39.28443,68.042644 z"
       transform="matrix(0.26104096,0,0,0.26472552,13.019853,17.498168)" />
  </g>
  <g
     inkscape:groupmode="layer"
     id="g6913"
     inkscape:label="Flare1"
     style="display:inline">
    <circle
       style="display:inline;fill:url(#radialGradient7098);fill-opacity:1;fill-rule:evenodd;stroke:none;stroke-width:3;stroke-miterlimit:4;stroke-dasharray:none;stroke-opacity:1"
       id="circle6911"
       cx="50"
       cy="50"
       r="48" />
  </g>
  <g
     inkscape:groupmode="layer"
     id="g5480"
     inkscape:label="Flare2"
     style="display:inline">
    <circle
       style="display:inline;fill:url(#radialGradient5482);fill-opacity:1;fill-rule:evenodd;stroke:none;stroke-width:3;stroke-miterlimit:4;stroke-dasharray:none;stroke-opacity:1"
       id="circle5478"
       cx="50"
       cy="50"
       r="48" />
  </g>
  <g
     inkscape:groupmode="layer"
     id="g8305"
     inkscape:label="Camera 2 copy 1"
     style="display:inline">
    <circle
       style="mix-blend-mode:overlay;fill:none;fill-opacity:1;fill-rule:evenodd;stroke:url(#linearGradient8729);stroke-width:3.5;stroke-linejoin:round;stroke-miterlimit:4;stroke-dasharray:none;stroke-opacity:1"
       id="circle8303"
       cx="50"
       cy="50"
       r="48" />
  </g>
  <g
     inkscape:groupmode="layer"
     id="layer3"
     inkscape:label="Camera 2"
     style="display:inline">
    <circle
       style="mix-blend-mode:normal;fill:none;fill-opacity:1;fill-rule:evenodd;stroke:url(#linearGradient852);stroke-width:2.6;stroke-linejoin:round;stroke-miterlimit:4;stroke-dasharray:none;stroke-opacity:1"
       id="path32"
       cx="50"
       cy="50"
       r="48" />
  </g>
  <g
     inkscape:groupmode="layer"
     id="g8255"
     inkscape:label="Camera 2 copy"
     style="display:inline">
    <path
       style="color:#000000;mix-blend-mode:normal;fill:url(#linearGradient8858);fill-rule:evenodd;stroke-width:0.988554;stroke-linejoin:round;-inkscape-stroke:none"
       d="M 50,3.7561598 C 24.466052,3.7561598 3.7561598,24.466052 3.7561598,50 3.7561598,75.533948 24.466052,96.24384 50,96.24384 75.533948,96.24384 96.24384,75.533948 96.24384,50 96.24384,24.466052 75.533948,3.7561598 50,3.7561598 Z m 0,1.0464767 C 74.967692,4.8026365 95.197363,25.032308 95.197363,50 95.197363,74.967692 74.967692,95.197363 50,95.197363 25.032308,95.197363 4.8026365,74.967692 4.8026365,50 4.8026365,25.032308 25.032308,4.8026365 50,4.8026365 Z"
       id="circle8253-9" />
    <path
       style="color:#000000;display:inline;mix-blend-mode:normal;fill:url(#linearGradient8913);fill-rule:evenodd;stroke-width:0.912244;stroke-linejoin:round;-inkscape-stroke:none"
       d="M 50,7.3258715 C 26.4371,7.3258715 7.3258715,26.4371 7.3258715,50 7.3258715,73.5629 26.4371,92.674129 50,92.674129 73.5629,92.674129 92.674129,73.5629 92.674129,50 92.674129,26.4371 73.5629,7.3258715 50,7.3258715 Z m 0,0.9656957 C 73.040355,8.2915672 91.708433,26.959645 91.708433,50 91.708433,73.040355 73.040355,91.708433 50,91.708433 26.959645,91.708433 8.2915672,73.040355 8.2915672,50 8.2915672,26.959645 26.959645,8.2915672 50,8.2915672 Z"
       id="circle8253-9-7" />
    <circle
       style="display:inline;fill:#ffffff;fill-opacity:0.0381472;stroke:none;stroke-width:0.53306;stroke-linejoin:round;stroke-miterlimit:4;stroke-dasharray:none;stroke-opacity:1"
       id="path64522"
       cx="38.027046"
       cy="31.601568"
       r="20" />
    <ellipse
       style="display:inline;fill:#ffffff;fill-opacity:0.0381472;stroke:none;stroke-width:0.239301;stroke-linejoin:round;stroke-miterlimit:4;stroke-dasharray:none;stroke-opacity:1"
       id="path64522-0"
       cx="61.572746"
       cy="62.77169"
       rx="9.0231371"
       ry="8.9338942" />
  </g>
  <g
     inkscape:groupmode="layer"
     id="layer6"
     inkscape:label="Claw1"
     style="display:inline">
    <g
       id="g65532"
       transform="matrix(0.66649559,0.57628644,-0.5592562,0.68679143,53.992313,-9.9258467)">
      <path
         style="fill:#3890ff;fill-opacity:1;stroke:url(#linearGradient41113);stroke-width:0;stroke-linecap:butt;stroke-linejoin:miter;stroke-miterlimit:4;stroke-dasharray:none;stroke-opacity:1"
         d="m 74.381023,27.937051 c 5.592357,0.1485 9.063476,1.93048 9.545575,2.15324 0.482101,0.22274 7.424342,2.74723 11.281132,10.09795 3.8568,7.35071 3.3747,15.07267 3.08544,18.48815 -0.28925,3.41548 -4.53173,11.80569 -6.65297,16.33492 -2.12124,4.52923 -8.677802,16.631917 -11.184721,18.710897 -2.50692,2.07899 -6.267295,4.52923 -9.738418,4.90048 -3.471117,0.37125 -5.303097,-0.81675 -7.906435,-2.96999 -2.603338,-2.15323 -3.953218,-3.34122 -5.013839,-3.11849 -1.060622,0.22276 -1.735558,0 -0.771359,-1.48499 0.964201,-1.48499 3.278278,-2.37599 1.735558,-3.26697 -1.54272,-0.891 -1.831978,0.22273 -3.567537,-0.81675 -1.735561,-1.03949 -3.278281,-2.22749 -2.989021,-3.56398 0.289261,-1.3365 0.964201,0.37125 -0.67494,-2.45025 -1.639138,-2.821477 -3.085439,-4.900457 -1.831977,-4.380707 1.253458,0.51973 3.278279,1.55923 1.735559,-0.51975 -1.54272,-2.079 -3.08544,-2.079 -2.21766,-3.48973 0.86778,-1.41075 0.771358,-1.41075 1.639138,-0.66825 0.867781,0.74249 2.024821,0.37124 1.253462,-1.70774 -0.771361,-2.079 -3.3747,-5.12323 -1.735559,-4.75198 1.639138,0.37125 2.796178,-2.45023 2.892596,-3.41549 0.09642,-0.96524 -1.542718,-3.04422 0.674941,-3.56397 2.21766,-0.51975 2.699759,-0.891 2.699759,-2.00474 0,-1.11375 -1.54272,-2.52449 -1.349878,-5.04898 0.192838,-2.52448 -0.674941,-6.45972 2.506918,-13.29069 3.181858,-6.83095 4.049639,-7.87045 5.978038,-9.05845 1.928399,-1.18799 4.04964,-1.48499 5.303098,-0.96524 1.253459,0.51975 0.964201,0.66824 0.19284,2.00474 -0.771359,1.33649 -0.867779,0.74249 -1.54272,3.48973 -0.674939,2.74724 -1.446298,11.43444 0.19284,14.03318 1.639141,2.59874 2.410499,4.97473 3.953218,4.15797 1.54272,-0.81674 3.471119,-2.52449 2.603339,-4.90047 -0.867779,-2.37599 0.964202,-7.87045 0.86778,-9.4297 -0.09641,-1.55924 -0.09641,-5.93996 -0.771359,-7.35071 -0.674939,-1.41075 -2.217658,-2.15324 -0.192838,-2.15324 z"
         id="path10881" />
      <path
         style="fill:#3872f6;fill-opacity:1;stroke:none;stroke-width:0.440871;stroke-linecap:butt;stroke-linejoin:miter;stroke-miterlimit:4;stroke-dasharray:none;stroke-opacity:1"
         d="m 57.507528,39.000251 c 2.024819,-5.12323 2.932846,-5.903448 5.658303,-8.514892 2.668848,-2.557203 5.526413,-2.919558 6.297772,-2.177068 0.771361,0.7425 0.867779,0.59401 0,1.41075 -0.867781,0.81674 -1.833413,3.72353 -2.217659,6.68246 -0.482101,3.71249 -1.060621,7.27647 0.482099,10.7662 1.54272,3.48973 1.9284,4.30648 3.374701,4.30648 1.446298,0 2.989018,-1.93049 3.278279,-4.38072 0.289258,-2.45025 -0.86778,-3.26699 -0.385681,-4.52924 0.482098,-1.26224 1.4463,-1.26224 1.25346,-4.67772 -0.192839,-3.41548 0,-2.67299 -0.09641,-4.60348 -0.09641,-1.93049 0.144628,-3.04423 -0.819569,-3.86098 -0.964203,-0.81674 -1.880186,-1.29936 0.04821,-1.48499 1.928397,-0.18564 4.965627,0.22274 6.267295,1.11374 1.30167,0.891 1.54272,1.44787 1.157042,1.59636 -0.385679,0.1485 -1.157042,0.44551 -1.976611,-0.0743 -0.819569,-0.51974 -1.590929,-1.37361 -2.31408,-1.11373 -0.723148,0.25986 -1.301669,0.22274 -1.157037,0.92811 0.144628,0.70537 0.819569,0.77963 0.819569,1.188 0,0.40838 0.482101,1.29936 0.289261,2.71011 -0.192843,1.41075 -0.241051,2.15323 0.04822,3.48973 0.289261,1.3365 -0.482098,1.67062 0.241049,2.30175 0.723151,0.6311 -0.964197,-0.22276 -0.867779,0.6311 0.09641,0.85389 1.253462,0.11136 1.30167,1.96763 0.04822,1.85624 -0.04822,2.33886 -0.144628,2.93285 -0.09641,0.594 0.867779,-0.11136 1.253459,0.55688 0.385679,0.66825 0.337471,1.0395 -0.289258,1.41074 -0.626733,0.37126 0.433889,0.55687 0.19284,0.92812 -0.24105,0.37125 0.241049,0.40838 -1.446302,0.96524 -1.687348,0.55688 -2.410499,2.74725 -2.362289,3.82387 0.04821,1.07661 0.915991,2.93285 -1.15704,3.34123 -2.073027,0.40837 -1.446298,-0.22275 -3.856799,0.85387 -2.410496,1.07662 -3.326487,3.15561 -4.387107,2.45024 -1.060619,-0.70538 -0.385678,-2.19037 -1.54272,-2.59875 -1.15704,-0.40836 -1.880188,-0.18561 -2.458709,0.63113 -0.578519,0.81675 -0.578519,0.70538 -1.639138,0.89099 -1.06062,0.18562 -1.25346,-0.48262 -2.79618,-0.25987 -1.542719,0.22274 -3.567539,0.44549 -3.760378,0.33413 -0.19284,-0.11136 0.24105,-0.33413 1.34988,-0.59401 1.10883,-0.25986 1.976609,-0.44549 2.892596,-0.44549 0.915991,0 -1.205248,-2.04185 -2.073027,-3.45261 -0.867781,-1.41074 -1.078009,-4.34153 0,-4.00947 0,0 0.482099,-0.33413 0.964198,0.29699 0.482102,0.63112 1.012411,1.11374 1.349879,2.19037 0.337471,1.07661 0.192841,1.89335 0.771362,1.74487 0.578519,-0.14851 1.54272,0.18561 3.422908,-0.7425 1.880191,-0.92813 3.95322,-1.63349 4.00143,-2.74724 0.04821,-1.11374 -0.879937,-3.8867 -1.205251,-8.46446 -0.271632,-3.82233 -0.337469,-5.56872 -0.723149,-6.71959 -0.385683,-1.15088 -0.91599,-2.56161 -2.07303,-2.04186 -1.157041,0.51974 -2.169449,1.33649 -3.374698,3.1556 -1.20525,1.81912 -1.59093,1.89337 -1.59093,1.89337 z"
         id="path37496"
         sodipodi:nodetypes="ssssssssssssssssssssssssssssssssssssssssssssssssssscs" />
      <path
         style="fill:#3872f6;fill-opacity:1;stroke:none;stroke-width:0.264583px;stroke-linecap:butt;stroke-linejoin:miter;stroke-opacity:1"
         d="m 83.435028,86.479788 c 1.2494,-9.638217 2.320314,-7.317907 -0.35697,-12.493987 -2.677284,-5.17608 -2.677284,-8.38882 -4.997596,-10.53065 -2.320313,-2.14183 1.066988,-1.38775 2.455281,-2.14501 1.388292,-0.75725 1.703813,-0.82035 1.514501,-1.70381 -0.189314,-0.88346 -1.64071,-0.56793 -0.0631,-1.83002 1.577604,-1.26208 1.766916,-1.07277 1.893125,-2.52417 0.126209,-1.45139 0.88346,-1.5145 2.082437,-3.53383 1.198984,-2.01934 2.208644,-2.71348 2.271754,-5.11144 0.0631,-2.39796 0.75725,-2.9659 -0.69415,-5.74248 -1.451395,-2.77658 -2.271748,-4.66971 -2.082436,-5.55317 0.189312,-0.88346 -2.019335,-3.28142 -2.839689,-4.03867 -0.820353,-0.75725 -2.713479,-2.39796 -0.946562,-1.5145 1.766916,0.88346 6.815247,3.09211 8.582167,5.61628 1.76692,2.52416 2.71348,3.029 3.15521,4.41729 0.44173,1.38829 5.01882,8.67074 3.59094,17.05956 -1.42789,8.38883 -9.99519,25.523437 -11.066107,27.129807 -1.070915,1.60637 -2.4988,2.4988 -2.4988,2.4988 z"
         id="path61831" />
      <ellipse
         style="fill:url(#radialGradient62309);fill-opacity:1;stroke:none;stroke-width:0.456364;stroke-linejoin:round;stroke-miterlimit:4;stroke-dasharray:none;stroke-opacity:1"
         id="path62121"
         cx="66.548325"
         cy="74.780388"
         rx="14.457332"
         ry="17.410872" />
      <path
         style="fill:#ffffff;stroke:none;stroke-width:0.299575px;stroke-linecap:butt;stroke-linejoin:miter;stroke-opacity:1;fill-opacity:1"
         d="m 73.27574,28.378873 c -0.497909,0.732764 -0.708578,1.089515 -0.240198,1.371429 0.468378,0.281911 0.865238,0.533843 1.257043,0.835014 0.391807,0.301169 0.783613,0.602336 0.565161,0.06572 -0.218452,-0.536621 -0.24955,-0.960478 -0.69772,-1.439329 -0.448168,-0.478852 -0.703934,-0.894173 -0.884286,-0.832829 z"
         id="path68903" />
      <path
         style="fill:#ffffff;fill-opacity:1;stroke:none;stroke-width:0.300047;stroke-linecap:butt;stroke-linejoin:miter;stroke-miterlimit:4;stroke-dasharray:none;stroke-opacity:1"
         d="m 67.017532,39.418612 c 0.335272,0.06132 0.298484,0.755346 0.520042,1.019388 0.221559,0.264045 -0.304996,0.250465 -0.304996,0.250465 -0.127885,-0.20766 -0.305491,0.434133 -0.298802,-0.111031 l 0.0096,-0.778392 z"
         id="path69286"
         sodipodi:nodetypes="cssscc" />
      <path
         style="fill:#ffffff;stroke:none;stroke-width:0.299575px;stroke-linecap:butt;stroke-linejoin:miter;stroke-opacity:1;fill-opacity:1"
         d="m 73.965909,42.587336 c -0.329551,-0.90068 -0.190484,-1.399168 0.06897,-1.871406 0.259452,-0.472238 0.818766,-0.782475 0.886381,-0.584679 0.06761,0.197797 -0.191284,1.178629 -0.191284,1.178629 0,0 -0.469706,0.807746 -0.764065,1.277456 z"
         id="path70264" />
      <path
         style="fill:#ffffff;stroke:none;stroke-width:0.299575px;stroke-linecap:butt;stroke-linejoin:miter;stroke-opacity:1;fill-opacity:1"
         d="m 56.574857,92.464596 c -0.872933,-1.431039 -1.958583,-1.474562 -0.43538,-1.925454 1.523205,-0.450895 1.906878,-1.790962 2.436789,-1.472015 0.529911,0.318947 -1.197758,3.104923 -1.638061,3.283484 -0.440305,0.178559 -0.363348,0.113985 -0.363348,0.113985 z"
         id="path70404" />
      <path
         style="fill:#ffffff;stroke:none;stroke-width:0.299575px;stroke-linecap:butt;stroke-linejoin:miter;stroke-opacity:1;fill-opacity:1"
         d="m 49.043818,73.330735 c -0.766285,-0.756935 -1.325886,-1.81456 -0.389755,-2.027374 0.936131,-0.212809 1.491871,-0.488233 1.158213,0.364434 -0.333656,0.852669 -0.368272,2.218005 -0.681603,1.844591"
         id="path70797" />
      <path
         style="fill:#ffffff;stroke:none;stroke-width:0.299575px;stroke-linecap:butt;stroke-linejoin:miter;stroke-opacity:1;fill-opacity:1"
         d="m 55.909812,47.716023 c 0.05332,0.337054 0.475765,0.332564 0.411722,0.09995 -0.06404,-0.232608 -0.411722,-0.09995 -0.411722,-0.09995 z"
         id="path70865" />
      <path
         style="display:inline;fill:#ffffff;fill-opacity:1;stroke:none;stroke-width:0.299575px;stroke-linecap:butt;stroke-linejoin:miter;stroke-opacity:1"
         d="m 74.817974,45.765136 c 0.05332,0.337054 0.475765,0.332564 0.411722,0.09995 -0.06404,-0.232608 -0.411722,-0.09995 -0.411722,-0.09995 z"
         id="path70865-5" />
      <path
         style="fill:#ffffff;stroke:none;stroke-width:0.299575px;stroke-linecap:butt;stroke-linejoin:miter;stroke-opacity:1;fill-opacity:1"
         d="m 56.132137,45.206871 c 0.245718,0.175615 0.436733,-0.143748 0.269351,-0.226012 -0.167385,-0.08227 -0.269351,0.226012 -0.269351,0.226012 z"
         id="path70933" />
      <path
         style="fill:#ffffff;stroke:none;stroke-width:0.299575px;stroke-linecap:butt;stroke-linejoin:miter;stroke-opacity:1;fill-opacity:1"
         d="m 62.445525,30.459826 c -0.173976,0.495963 0.112416,0.446549 0.254239,0.263914 0.14182,-0.182636 -0.0041,-0.473783 -0.138801,-0.360778 -0.134674,0.113005 -0.115434,0.09686 -0.115434,0.09686 z"
         id="path71146" />
      <path
         style="fill:#ffffff;stroke:none;stroke-width:0.299575px;stroke-linecap:butt;stroke-linejoin:miter;stroke-opacity:1;fill-opacity:1"
         d="m 74.821726,42.874969 c 0.42912,0.179867 0.447383,-0.240416 0.304343,-0.30037 -0.143041,-0.05996 -0.39802,0.243988 -0.304343,0.30037 z"
         id="path71292" />
    </g>
  </g>
  <g
     inkscape:groupmode="layer"
     id="layer8"
     inkscape:label="claw gradients"
     style="display:inline">
    <path
       style="display:inline;fill:#ffffff;fill-opacity:1;stroke:none;stroke-width:0.265;stroke-linecap:butt;stroke-linejoin:miter;stroke-miterlimit:4;stroke-dasharray:none;stroke-opacity:1"
       d="m 84.487019,50.40173 c -0.339924,1.050679 -0.587142,1.390605 -1.297898,1.081582 -0.710753,-0.309022 -1.359704,-0.463534 -1.57602,0.0309 -0.216315,0.494437 -0.09271,2.070457 -0.92707,1.576019 -0.834364,-0.494437 -1.17429,-0.154514 -1.390605,0.154512 -0.216316,0.309022 -0.185415,1.761434 -0.618049,1.390605 -0.43263,-0.37083 -0.618045,-0.37083 -0.618045,-0.37083 0,0 0.463534,-0.525338 1.452409,-1.576019 0.988875,-1.050679 1.421508,-1.236094 2.410383,-1.761432 0.988875,-0.525341 2.564895,-0.525341 2.564895,-0.525341 z"
       id="path68098" />
  </g>
</svg>
